<?xml version="1.0" standalone="no"?>
<!DOCTYPE svg PUBLIC "-//W3C//DTD SVG 20010904//EN"
 "http://www.w3.org/TR/2001/REC-SVG-20010904/DTD/svg10.dtd">
<svg version="1.0" xmlns="http://www.w3.org/2000/svg"
 width="500.000000pt" height="500.000000pt" viewBox="0 0 500.000000 500.000000"
 preserveAspectRatio="xMidYMid meet">
<metadata>
Created by potrace 1.14, written by Peter Selinger 2001-2017
</metadata>
<g transform="translate(0.000000,500.000000) scale(0.100000,-0.100000)"
fill="#000000" stroke="none">
<path d="M2369 4769 c-576 -32 -1145 -319 -1521 -768 -275 -329 -453 -744
-500 -1166 -16 -152 -5 -484 22 -624 129 -680 559 -1252 1168 -1556 573 -286
1222 -308 1814 -61 263 110 483 259 694 470 343 343 543 741 620 1231 23 151
23 460 0 610 -114 730 -548 1326 -1199 1645 -347 171 -700 241 -1098 219z"/>
</g>
</svg>
